<?xml version="1.0" standalone="no"?>
<!DOCTYPE svg PUBLIC "-//W3C//DTD SVG 20010904//EN"
 "http://www.w3.org/TR/2001/REC-SVG-20010904/DTD/svg10.dtd">
<svg version="1.0" xmlns="http://www.w3.org/2000/svg"
 width="512.000000pt" height="512.000000pt" viewBox="0 0 512.000000 512.000000"
 preserveAspectRatio="xMidYMid meet">
<metadata>
Created by potrace 1.11, written by Peter Selinger 2001-2013
</metadata>
<g transform="translate(0.000000,512.000000) scale(0.100000,-0.100000)"
fill="#000000" stroke="none">
<path d="M1557 5109 c-106 -25 -207 -113 -249 -217 l-23 -57 0 -2275 0 -2275
23 -57 c33 -81 106 -158 184 -194 l63 -29 1005 0 1005 0 63 29 c78 36 151 113
184 194 l23 57 0 2275 0 2275 -23 57 c-33 81 -106 158 -184 194 l-63 29 -985
2 c-553 1 -1001 -3 -1023 -8z m1998 -191 c39 -21 71 -56 84 -91 8 -20 11 -706
11 -2268 0 -1869 -2 -2245 -14 -2272 -16 -38 -66 -84 -104 -95 -15 -4 -457 -7
-982 -7 -1068 0 -988 -5 -1047 72 l-28 36 0 2267 0 2267 28 36 c37 48 60 60
132 68 33 3 472 6 975 5 831 -1 918 -3 945 -18z"/>
<path d="M2464 4478 c-59 -19 -127 -80 -159 -143 l-30 -59 -3 -1302 -2 -1303
-45 -31 c-58 -40 -136 -134 -169 -203 -105 -223 -63 -469 110 -643 113 -114
238 -166 401 -165 151 1 274 53 389 166 119 117 172 258 162 433 -9 153 -89
307 -209 399 l-59 46 -2 1302 -3 1301 -30 59 c-34 66 -101 125 -165 144 -45
13 -143 13 -186 -1z m248 -3081 c59 -45 98 -111 105 -178 5 -49 3 -58 -22 -87
-21 -25 -34 -32 -64 -32 -52 0 -77 22 -95 83 -12 38 -26 61 -56 85 -34 28 -40
39 -40 71 0 28 7 45 26 65 39 38 90 36 146 -7z"/>
<path d="M1796 4024 c-43 -44 -33 -113 21 -142 27 -15 237 -16 264 -2 29 16
51 67 44 101 -13 57 -43 69 -180 69 -119 0 -123 -1 -149 -26z"/>
<path d="M1824 3540 c-55 -22 -72 -103 -30 -145 30 -30 73 -38 185 -34 77 4
93 7 114 27 49 46 42 119 -14 147 -31 17 -218 20 -255 5z"/>
<path d="M1835 3040 c-40 -13 -65 -47 -65 -92 0 -28 7 -42 31 -62 29 -25 36
-26 147 -26 96 0 121 4 138 18 51 41 54 100 8 143 -23 21 -36 24 -127 26 -56
1 -115 -2 -132 -7z"/>
<path d="M1801 2514 c-62 -52 -31 -144 53 -160 20 -3 77 -4 126 -2 76 3 93 8
114 27 31 29 40 66 25 103 -19 47 -54 58 -178 58 -103 0 -111 -1 -140 -26z"/>
<path d="M1823 2026 c-62 -28 -74 -107 -22 -150 29 -25 37 -26 140 -26 124 0
159 11 178 58 15 37 6 74 -26 103 -22 21 -35 24 -131 27 -77 2 -116 -2 -139
-12z"/>
</g>
</svg>
